<?xml version="1.0" encoding="UTF-8" standalone="no"?>
<!DOCTYPE svg PUBLIC "-//W3C//DTD SVG 1.1//EN"
 "http://www.w3.org/Graphics/SVG/1.1/DTD/svg11.dtd">
<!-- Generated by graphviz version 2.40.1 (20161225.0304)
 -->
<!-- Title: dependencies Pages: 1 -->
<svg width="504pt" height="349pt"
 viewBox="0.00 0.00 504.00 349.00" xmlns="http://www.w3.org/2000/svg" xmlns:xlink="http://www.w3.org/1999/xlink">
<g id="graph0" class="graph" transform="scale(1 1) rotate(0) translate(4 345)">
<title>dependencies</title>
<polygon fill="#ffffff" stroke="transparent" points="-4,4 -4,-345 500,-345 500,4 -4,4"/>
<text text-anchor="start" x="227.0091" y="-42.4" font-family="sans-serif" font-weight="bold" font-size="14.00" fill="#000000">Legend</text>
<polygon fill="#ffffb3" stroke="transparent" points="14,-10 14,-30 34,-30 34,-10 14,-10"/>
<text text-anchor="start" x="37.629" y="-15.4" font-family="sans-serif" font-size="14.00" fill="#000000"> &#160;Declarations</text>
<polygon fill="#8dd3c7" stroke="transparent" points="127,-10 127,-30 147,-30 147,-10 127,-10"/>
<text text-anchor="start" x="150.7251" y="-15.4" font-family="sans-serif" font-size="14.00" fill="#000000"> &#160;Module</text>
<polygon fill="#80b1d3" stroke="transparent" points="213,-10 213,-30 233,-30 233,-10 213,-10"/>
<text text-anchor="start" x="236.7812" y="-15.4" font-family="sans-serif" font-size="14.00" fill="#000000"> &#160;Bootstrap</text>
<polygon fill="#fdb462" stroke="transparent" points="310,-10 310,-30 330,-30 330,-10 310,-10"/>
<text text-anchor="start" x="333.6732" y="-15.4" font-family="sans-serif" font-size="14.00" fill="#000000"> &#160;Providers</text>
<polygon fill="#fb8072" stroke="transparent" points="406,-10 406,-30 426,-30 426,-10 406,-10"/>
<text text-anchor="start" x="429.7258" y="-15.4" font-family="sans-serif" font-size="14.00" fill="#000000"> &#160;Exports</text>
<g id="clust1" class="cluster">
<title>cluster_AngularDateTimePickerModule</title>
<polygon fill="none" stroke="#000000" stroke-dasharray="1,5" points="18,-70 18,-333 478,-333 478,-70 18,-70"/>
</g>
<g id="clust2" class="cluster">
<title>cluster_AngularDateTimePickerModule_declarations</title>
<polygon fill="none" stroke="#000000" points="41,-143 41,-195 295,-195 295,-143 41,-143"/>
</g>
<g id="clust3" class="cluster">
<title>cluster_AngularDateTimePickerModule_DatePicker_providers</title>
<polygon fill="none" stroke="#000000" points="26,-78 26,-130 470,-130 470,-78 26,-78"/>
</g>
<g id="clust6" class="cluster">
<title>cluster_AngularDateTimePickerModule_exports</title>
<polygon fill="none" stroke="#000000" points="63,-273 63,-325 325,-325 325,-273 63,-273"/>
</g>
<!-- DatePicker -->
<g id="node1" class="node">
<title>DatePicker</title>
<polygon fill="#ffffb3" stroke="#000000" points="287.1896,-187 208.8104,-187 208.8104,-151 287.1896,-151 287.1896,-187"/>
<text text-anchor="middle" x="248" y="-164.8" font-family="Times,serif" font-size="14.00" fill="#000000">DatePicker</text>
</g>
<!-- AngularDateTimePickerModule -->
<g id="node3" class="node">
<title>AngularDateTimePickerModule</title>
<polygon fill="#8dd3c7" stroke="#000000" points="280.6601,-252 277.6601,-256 256.6601,-256 253.6601,-252 83.3399,-252 83.3399,-216 280.6601,-216 280.6601,-252"/>
<text text-anchor="middle" x="182" y="-229.8" font-family="Times,serif" font-size="14.00" fill="#000000">AngularDateTimePickerModule</text>
</g>
<!-- DatePicker&#45;&gt;AngularDateTimePickerModule -->
<g id="edge1" class="edge">
<title>DatePicker&#45;&gt;AngularDateTimePickerModule</title>
<path fill="none" stroke="#000000" d="M244.7427,-187.1061C244.7427,-187.1061 244.7427,-205.991 244.7427,-205.991"/>
<polygon fill="#000000" stroke="#000000" points="241.2427,-205.9909 244.7427,-215.991 248.2427,-205.991 241.2427,-205.9909"/>
</g>
<!-- ClickOutsideDirective -->
<g id="node2" class="node">
<title>ClickOutsideDirective</title>
<polygon fill="#ffffb3" stroke="#000000" points="190.9622,-187 49.0378,-187 49.0378,-151 190.9622,-151 190.9622,-187"/>
<text text-anchor="middle" x="120" y="-164.8" font-family="Times,serif" font-size="14.00" fill="#000000">ClickOutsideDirective</text>
</g>
<!-- ClickOutsideDirective&#45;&gt;AngularDateTimePickerModule -->
<g id="edge3" class="edge">
<title>ClickOutsideDirective&#45;&gt;AngularDateTimePickerModule</title>
<path fill="none" stroke="#000000" d="M137.2006,-187.1061C137.2006,-187.1061 137.2006,-205.991 137.2006,-205.991"/>
<polygon fill="#000000" stroke="#000000" points="133.7006,-205.9909 137.2006,-215.991 140.7006,-205.991 133.7006,-205.9909"/>
</g>
<!-- DatePicker  -->
<g id="node5" class="node">
<title>DatePicker </title>
<polygon fill="#fb8072" stroke="#000000" points="316.69,-317 235.31,-317 235.31,-281 316.69,-281 316.69,-317"/>
<text text-anchor="middle" x="276" y="-294.8" font-family="Times,serif" font-size="14.00" fill="#000000">DatePicker </text>
</g>
<!-- AngularDateTimePickerModule&#45;&gt;DatePicker  -->
<g id="edge4" class="edge">
<title>AngularDateTimePickerModule&#45;&gt;DatePicker </title>
<path fill="none" stroke="#000000" stroke-dasharray="5,2" d="M257.8677,-252.1061C257.8677,-252.1061 257.8677,-270.991 257.8677,-270.991"/>
<polygon fill="#000000" stroke="#000000" points="254.3677,-270.9909 257.8677,-280.991 261.3677,-270.991 254.3677,-270.9909"/>
</g>
<!-- ClickOutsideDirective  -->
<g id="node6" class="node">
<title>ClickOutsideDirective </title>
<polygon fill="#fb8072" stroke="#000000" points="216.9629,-317 71.0371,-317 71.0371,-281 216.9629,-281 216.9629,-317"/>
<text text-anchor="middle" x="144" y="-294.8" font-family="Times,serif" font-size="14.00" fill="#000000">ClickOutsideDirective </text>
</g>
<!-- AngularDateTimePickerModule&#45;&gt;ClickOutsideDirective  -->
<g id="edge5" class="edge">
<title>AngularDateTimePickerModule&#45;&gt;ClickOutsideDirective </title>
<path fill="none" stroke="#000000" stroke-dasharray="5,2" d="M150.0756,-252.1061C150.0756,-252.1061 150.0756,-270.991 150.0756,-270.991"/>
<polygon fill="#000000" stroke="#000000" points="146.5756,-270.9909 150.0756,-280.991 153.5756,-270.991 146.5756,-270.9909"/>
</g>
<!-- DATEPICKER_CONTROL_VALUE_ACCESSOR -->
<g id="node4" class="node">
<title>DATEPICKER_CONTROL_VALUE_ACCESSOR</title>
<ellipse fill="#fdb462" stroke="#000000" cx="248" cy="-104" rx="213.6069" ry="18"/>
<text text-anchor="middle" x="248" y="-99.8" font-family="Times,serif" font-size="14.00" fill="#000000">DATEPICKER_CONTROL_VALUE_ACCESSOR</text>
</g>
<!-- DATEPICKER_CONTROL_VALUE_ACCESSOR&#45;&gt;DatePicker -->
<g id="edge2" class="edge">
<title>DATEPICKER_CONTROL_VALUE_ACCESSOR&#45;&gt;DatePicker</title>
<path fill="none" stroke="#000000" d="M248,-122.1061C248,-122.1061 248,-140.991 248,-140.991"/>
<polygon fill="#000000" stroke="#000000" points="244.5001,-140.9909 248,-150.991 251.5001,-140.991 244.5001,-140.9909"/>
</g>
</g>
</svg>
