<?xml version="1.0" encoding="UTF-8" standalone="no"?>
<!DOCTYPE svg PUBLIC "-//W3C//DTD SVG 1.1//EN"
 "http://www.w3.org/Graphics/SVG/1.1/DTD/svg11.dtd">
<!-- Generated by graphviz version 2.40.1 (20161225.0304)
 -->
<!-- Title: dependencies Pages: 1 -->
<svg width="1788pt" height="420pt"
 viewBox="0.00 0.00 1788.00 420.00" xmlns="http://www.w3.org/2000/svg" xmlns:xlink="http://www.w3.org/1999/xlink">
<g id="graph0" class="graph" transform="scale(1 1) rotate(0) translate(4 416)">
<title>dependencies</title>
<polygon fill="#ffffff" stroke="transparent" points="-4,4 -4,-416 1784,-416 1784,4 -4,4"/>
<text text-anchor="start" x="869.0091" y="-42.4" font-family="sans-serif" font-weight="bold" font-size="14.00" fill="#000000">Legend</text>
<polygon fill="#ffffb3" stroke="transparent" points="656,-10 656,-30 676,-30 676,-10 656,-10"/>
<text text-anchor="start" x="679.629" y="-15.4" font-family="sans-serif" font-size="14.00" fill="#000000"> &#160;Declarations</text>
<polygon fill="#8dd3c7" stroke="transparent" points="769,-10 769,-30 789,-30 789,-10 769,-10"/>
<text text-anchor="start" x="792.7251" y="-15.4" font-family="sans-serif" font-size="14.00" fill="#000000"> &#160;Module</text>
<polygon fill="#80b1d3" stroke="transparent" points="855,-10 855,-30 875,-30 875,-10 855,-10"/>
<text text-anchor="start" x="878.7812" y="-15.4" font-family="sans-serif" font-size="14.00" fill="#000000"> &#160;Bootstrap</text>
<polygon fill="#fdb462" stroke="transparent" points="952,-10 952,-30 972,-30 972,-10 952,-10"/>
<text text-anchor="start" x="975.6732" y="-15.4" font-family="sans-serif" font-size="14.00" fill="#000000"> &#160;Providers</text>
<polygon fill="#fb8072" stroke="transparent" points="1048,-10 1048,-30 1068,-30 1068,-10 1048,-10"/>
<text text-anchor="start" x="1071.7258" y="-15.4" font-family="sans-serif" font-size="14.00" fill="#000000"> &#160;Exports</text>
<g id="clust1" class="cluster">
<title>cluster_AngularDateTimePickerModule</title>
<polygon fill="none" stroke="#000000" stroke-dasharray="1,5" points="1312,-70 1312,-336 1772,-336 1772,-70 1312,-70"/>
</g>
<g id="clust2" class="cluster">
<title>cluster_AngularDateTimePickerModule_declarations</title>
<polygon fill="none" stroke="#000000" points="1335,-143 1335,-195 1589,-195 1589,-143 1335,-143"/>
</g>
<g id="clust3" class="cluster">
<title>cluster_AngularDateTimePickerModule_DatePicker_providers</title>
<polygon fill="none" stroke="#000000" points="1320,-78 1320,-130 1764,-130 1764,-78 1320,-78"/>
</g>
<g id="clust6" class="cluster">
<title>cluster_AngularDateTimePickerModule_exports</title>
<polygon fill="none" stroke="#000000" points="1329,-276 1329,-328 1591,-328 1591,-276 1329,-276"/>
</g>
<g id="clust9" class="cluster">
<title>cluster_AppModule</title>
<polygon fill="none" stroke="#000000" stroke-dasharray="1,5" points="8,-203 8,-404 1304,-404 1304,-203 8,-203"/>
</g>
<g id="clust10" class="cluster">
<title>cluster_AppModule_declarations</title>
<polygon fill="none" stroke="#000000" points="162,-211 162,-263 1296,-263 1296,-211 162,-211"/>
</g>
<g id="clust18" class="cluster">
<title>cluster_AppModule_imports</title>
<polygon fill="none" stroke="#000000" points="16,-211 16,-263 154,-263 154,-211 16,-211"/>
</g>
<g id="clust20" class="cluster">
<title>cluster_AppModule_bootstrap</title>
<polygon fill="none" stroke="#000000" points="731,-344 731,-396 855,-396 855,-344 731,-344"/>
</g>
<!-- DatePicker -->
<g id="node1" class="node">
<title>DatePicker</title>
<polygon fill="#ffffb3" stroke="#000000" points="1581.1896,-187 1502.8104,-187 1502.8104,-151 1581.1896,-151 1581.1896,-187"/>
<text text-anchor="middle" x="1542" y="-164.8" font-family="Times,serif" font-size="14.00" fill="#000000">DatePicker</text>
</g>
<!-- AngularDateTimePickerModule -->
<g id="node3" class="node">
<title>AngularDateTimePickerModule</title>
<polygon fill="#8dd3c7" stroke="#000000" points="1517.6601,-255 1514.6601,-259 1493.6601,-259 1490.6601,-255 1320.3399,-255 1320.3399,-219 1517.6601,-219 1517.6601,-255"/>
<text text-anchor="middle" x="1419" y="-232.8" font-family="Times,serif" font-size="14.00" fill="#000000">AngularDateTimePickerModule</text>
</g>
<!-- DatePicker&#45;&gt;AngularDateTimePickerModule -->
<g id="edge1" class="edge">
<title>DatePicker&#45;&gt;AngularDateTimePickerModule</title>
<path fill="none" stroke="#000000" d="M1512.6884,-187.2228C1512.6884,-187.2228 1512.6884,-208.7269 1512.6884,-208.7269"/>
<polygon fill="#000000" stroke="#000000" points="1509.1885,-208.7269 1512.6884,-218.7269 1516.1885,-208.727 1509.1885,-208.7269"/>
</g>
<!-- DatePicker&#45;&gt;AngularDateTimePickerModule -->
<g id="edge6" class="edge">
<title>DatePicker&#45;&gt;AngularDateTimePickerModule</title>
<path fill="none" stroke="#000000" d="M1507.7969,-187.2228C1507.7969,-187.2228 1507.7969,-208.7269 1507.7969,-208.7269"/>
<polygon fill="#000000" stroke="#000000" points="1504.297,-208.7269 1507.7969,-218.7269 1511.297,-208.727 1504.297,-208.7269"/>
</g>
<!-- ClickOutsideDirective -->
<g id="node2" class="node">
<title>ClickOutsideDirective</title>
<polygon fill="#ffffb3" stroke="#000000" points="1484.9622,-187 1343.0378,-187 1343.0378,-151 1484.9622,-151 1484.9622,-187"/>
<text text-anchor="middle" x="1414" y="-164.8" font-family="Times,serif" font-size="14.00" fill="#000000">ClickOutsideDirective</text>
</g>
<!-- ClickOutsideDirective&#45;&gt;AngularDateTimePickerModule -->
<g id="edge3" class="edge">
<title>ClickOutsideDirective&#45;&gt;AngularDateTimePickerModule</title>
<path fill="none" stroke="#000000" d="M1437.6604,-187.2228C1437.6604,-187.2228 1437.6604,-208.7269 1437.6604,-208.7269"/>
<polygon fill="#000000" stroke="#000000" points="1434.1605,-208.7269 1437.6604,-218.7269 1441.1605,-208.727 1434.1605,-208.7269"/>
</g>
<!-- ClickOutsideDirective&#45;&gt;AngularDateTimePickerModule -->
<g id="edge8" class="edge">
<title>ClickOutsideDirective&#45;&gt;AngularDateTimePickerModule</title>
<path fill="none" stroke="#000000" d="M1390.3396,-187.2228C1390.3396,-187.2228 1390.3396,-208.7269 1390.3396,-208.7269"/>
<polygon fill="#000000" stroke="#000000" points="1386.8397,-208.7269 1390.3396,-218.7269 1393.8397,-208.727 1386.8397,-208.7269"/>
</g>
<!-- DatePicker  -->
<g id="node5" class="node">
<title>DatePicker </title>
<polygon fill="#fb8072" stroke="#000000" points="1582.69,-320 1501.31,-320 1501.31,-284 1582.69,-284 1582.69,-320"/>
<text text-anchor="middle" x="1542" y="-297.8" font-family="Times,serif" font-size="14.00" fill="#000000">DatePicker </text>
</g>
<!-- AngularDateTimePickerModule&#45;&gt;DatePicker  -->
<g id="edge4" class="edge">
<title>AngularDateTimePickerModule&#45;&gt;DatePicker </title>
<path fill="none" stroke="#000000" stroke-dasharray="5,2" d="M1512.1051,-255.1061C1512.1051,-255.1061 1512.1051,-273.991 1512.1051,-273.991"/>
<polygon fill="#000000" stroke="#000000" points="1508.6052,-273.9909 1512.1051,-283.991 1515.6052,-273.991 1508.6052,-273.9909"/>
</g>
<!-- AngularDateTimePickerModule&#45;&gt;DatePicker  -->
<g id="edge9" class="edge">
<title>AngularDateTimePickerModule&#45;&gt;DatePicker </title>
<path fill="none" stroke="#000000" stroke-dasharray="5,2" d="M1506.6302,-255.1061C1506.6302,-255.1061 1506.6302,-273.991 1506.6302,-273.991"/>
<polygon fill="#000000" stroke="#000000" points="1503.1303,-273.9909 1506.6302,-283.991 1510.1303,-273.991 1503.1303,-273.9909"/>
</g>
<!-- ClickOutsideDirective  -->
<g id="node6" class="node">
<title>ClickOutsideDirective </title>
<polygon fill="#fb8072" stroke="#000000" points="1482.9629,-320 1337.0371,-320 1337.0371,-284 1482.9629,-284 1482.9629,-320"/>
<text text-anchor="middle" x="1410" y="-297.8" font-family="Times,serif" font-size="14.00" fill="#000000">ClickOutsideDirective </text>
</g>
<!-- AngularDateTimePickerModule&#45;&gt;ClickOutsideDirective  -->
<g id="edge5" class="edge">
<title>AngularDateTimePickerModule&#45;&gt;ClickOutsideDirective </title>
<path fill="none" stroke="#000000" stroke-dasharray="5,2" d="M1434.2437,-255.1061C1434.2437,-255.1061 1434.2437,-273.991 1434.2437,-273.991"/>
<polygon fill="#000000" stroke="#000000" points="1430.7438,-273.9909 1434.2437,-283.991 1437.7438,-273.991 1430.7438,-273.9909"/>
</g>
<!-- AngularDateTimePickerModule&#45;&gt;ClickOutsideDirective  -->
<g id="edge10" class="edge">
<title>AngularDateTimePickerModule&#45;&gt;ClickOutsideDirective </title>
<path fill="none" stroke="#000000" stroke-dasharray="5,2" d="M1385.7563,-255.1061C1385.7563,-255.1061 1385.7563,-273.991 1385.7563,-273.991"/>
<polygon fill="#000000" stroke="#000000" points="1382.2564,-273.9909 1385.7563,-283.991 1389.2564,-273.991 1382.2564,-273.9909"/>
</g>
<!-- AppModule -->
<g id="node14" class="node">
<title>AppModule</title>
<polygon fill="#8dd3c7" stroke="#000000" points="834.6571,-320 831.6571,-324 810.6571,-324 807.6571,-320 751.3429,-320 751.3429,-284 834.6571,-284 834.6571,-320"/>
<text text-anchor="middle" x="793" y="-297.8" font-family="Times,serif" font-size="14.00" fill="#000000">AppModule</text>
</g>
<!-- AngularDateTimePickerModule&#45;&gt;AppModule -->
<g id="edge18" class="edge">
<title>AngularDateTimePickerModule&#45;&gt;AppModule</title>
<path fill="none" stroke="#000000" d="M1328.8445,-255.0109C1328.8445,-277.4852 1328.8445,-313 1328.8445,-313 1328.8445,-313 845.0468,-313 845.0468,-313"/>
<polygon fill="#000000" stroke="#000000" points="845.0469,-309.5001 835.0468,-313 845.0468,-316.5001 845.0469,-309.5001"/>
</g>
<!-- DATEPICKER_CONTROL_VALUE_ACCESSOR -->
<g id="node4" class="node">
<title>DATEPICKER_CONTROL_VALUE_ACCESSOR</title>
<ellipse fill="#fdb462" stroke="#000000" cx="1542" cy="-104" rx="213.6069" ry="18"/>
<text text-anchor="middle" x="1542" y="-99.8" font-family="Times,serif" font-size="14.00" fill="#000000">DATEPICKER_CONTROL_VALUE_ACCESSOR</text>
</g>
<!-- DATEPICKER_CONTROL_VALUE_ACCESSOR&#45;&gt;DatePicker -->
<g id="edge2" class="edge">
<title>DATEPICKER_CONTROL_VALUE_ACCESSOR&#45;&gt;DatePicker</title>
<path fill="none" stroke="#000000" d="M1528.9684,-122.1061C1528.9684,-122.1061 1528.9684,-140.991 1528.9684,-140.991"/>
<polygon fill="#000000" stroke="#000000" points="1525.4685,-140.9909 1528.9684,-150.991 1532.4685,-140.991 1525.4685,-140.9909"/>
</g>
<!-- DATEPICKER_CONTROL_VALUE_ACCESSOR&#45;&gt;DatePicker -->
<g id="edge7" class="edge">
<title>DATEPICKER_CONTROL_VALUE_ACCESSOR&#45;&gt;DatePicker</title>
<path fill="none" stroke="#000000" d="M1555.0316,-122.1061C1555.0316,-122.1061 1555.0316,-140.991 1555.0316,-140.991"/>
<polygon fill="#000000" stroke="#000000" points="1551.5317,-140.9909 1555.0316,-150.991 1558.5317,-140.991 1551.5317,-140.9909"/>
</g>
<!-- AppComponent -->
<g id="node7" class="node">
<title>AppComponent</title>
<polygon fill="#ffffb3" stroke="#000000" points="1287.9399,-255 1182.0601,-255 1182.0601,-219 1287.9399,-219 1287.9399,-255"/>
<text text-anchor="middle" x="1235" y="-232.8" font-family="Times,serif" font-size="14.00" fill="#000000">AppComponent</text>
</g>
<!-- AppComponent&#45;&gt;AppModule -->
<g id="edge11" class="edge">
<title>AppComponent&#45;&gt;AppModule</title>
<path fill="none" stroke="#000000" d="M1235,-255.1289C1235,-275.5724 1235,-306 1235,-306 1235,-306 844.9808,-306 844.9808,-306"/>
<polygon fill="#000000" stroke="#000000" points="844.9808,-302.5001 834.9808,-306 844.9807,-309.5001 844.9808,-302.5001"/>
</g>
<!-- AdsenseComponent -->
<g id="node8" class="node">
<title>AdsenseComponent</title>
<polygon fill="#ffffb3" stroke="#000000" points="1164.2576,-255 1035.7424,-255 1035.7424,-219 1164.2576,-219 1164.2576,-255"/>
<text text-anchor="middle" x="1100" y="-232.8" font-family="Times,serif" font-size="14.00" fill="#000000">AdsenseComponent</text>
</g>
<!-- AdsenseComponent&#45;&gt;AppModule -->
<g id="edge12" class="edge">
<title>AdsenseComponent&#45;&gt;AppModule</title>
<path fill="none" stroke="#000000" d="M1100,-255.2667C1100,-273.5552 1100,-299 1100,-299 1100,-299 844.7229,-299 844.7229,-299"/>
<polygon fill="#000000" stroke="#000000" points="844.7229,-295.5001 834.7229,-299 844.7229,-302.5001 844.7229,-295.5001"/>
</g>
<!-- DatePickerExample -->
<g id="node9" class="node">
<title>DatePickerExample</title>
<polygon fill="#ffffb3" stroke="#000000" points="1017.9524,-255 890.0476,-255 890.0476,-219 1017.9524,-219 1017.9524,-255"/>
<text text-anchor="middle" x="954" y="-232.8" font-family="Times,serif" font-size="14.00" fill="#000000">DatePickerExample</text>
</g>
<!-- DatePickerExample&#45;&gt;AppModule -->
<g id="edge13" class="edge">
<title>DatePickerExample&#45;&gt;AppModule</title>
<path fill="none" stroke="#000000" d="M954,-255.0091C954,-271.0494 954,-292 954,-292 954,-292 844.8806,-292 844.8806,-292"/>
<polygon fill="#000000" stroke="#000000" points="844.8806,-288.5001 834.8806,-292 844.8805,-295.5001 844.8806,-288.5001"/>
</g>
<!-- DateTimePickerExample -->
<g id="node10" class="node">
<title>DateTimePickerExample</title>
<polygon fill="#ffffb3" stroke="#000000" points="871.5016,-255 714.4984,-255 714.4984,-219 871.5016,-219 871.5016,-255"/>
<text text-anchor="middle" x="793" y="-232.8" font-family="Times,serif" font-size="14.00" fill="#000000">DateTimePickerExample</text>
</g>
<!-- DateTimePickerExample&#45;&gt;AppModule -->
<g id="edge14" class="edge">
<title>DateTimePickerExample&#45;&gt;AppModule</title>
<path fill="none" stroke="#000000" d="M793,-255.1061C793,-255.1061 793,-273.991 793,-273.991"/>
<polygon fill="#000000" stroke="#000000" points="789.5001,-273.9909 793,-283.991 796.5001,-273.991 789.5001,-273.9909"/>
</g>
<!-- SimpleDatePickerExample -->
<g id="node11" class="node">
<title>SimpleDatePickerExample</title>
<polygon fill="#ffffb3" stroke="#000000" points="695.6218,-255 528.3782,-255 528.3782,-219 695.6218,-219 695.6218,-255"/>
<text text-anchor="middle" x="612" y="-232.8" font-family="Times,serif" font-size="14.00" fill="#000000">SimpleDatePickerExample</text>
</g>
<!-- SimpleDatePickerExample&#45;&gt;AppModule -->
<g id="edge15" class="edge">
<title>SimpleDatePickerExample&#45;&gt;AppModule</title>
<path fill="none" stroke="#000000" d="M612,-255.0091C612,-271.0494 612,-292 612,-292 612,-292 741.02,-292 741.02,-292"/>
<polygon fill="#000000" stroke="#000000" points="741.0201,-295.5001 751.02,-292 741.02,-288.5001 741.0201,-295.5001"/>
</g>
<!-- UsingWithFormExample -->
<g id="node12" class="node">
<title>UsingWithFormExample</title>
<polygon fill="#ffffb3" stroke="#000000" points="509.5351,-255 352.4649,-255 352.4649,-219 509.5351,-219 509.5351,-255"/>
<text text-anchor="middle" x="431" y="-232.8" font-family="Times,serif" font-size="14.00" fill="#000000">UsingWithFormExample</text>
</g>
<!-- UsingWithFormExample&#45;&gt;AppModule -->
<g id="edge16" class="edge">
<title>UsingWithFormExample&#45;&gt;AppModule</title>
<path fill="none" stroke="#000000" d="M431,-255.2667C431,-273.5552 431,-299 431,-299 431,-299 741.1204,-299 741.1204,-299"/>
<polygon fill="#000000" stroke="#000000" points="741.1204,-302.5001 751.1204,-299 741.1203,-295.5001 741.1204,-302.5001"/>
</g>
<!-- DateRangePickerExample -->
<g id="node13" class="node">
<title>DateRangePickerExample</title>
<polygon fill="#ffffb3" stroke="#000000" points="333.7184,-255 170.2816,-255 170.2816,-219 333.7184,-219 333.7184,-255"/>
<text text-anchor="middle" x="252" y="-232.8" font-family="Times,serif" font-size="14.00" fill="#000000">DateRangePickerExample</text>
</g>
<!-- DateRangePickerExample&#45;&gt;AppModule -->
<g id="edge17" class="edge">
<title>DateRangePickerExample&#45;&gt;AppModule</title>
<path fill="none" stroke="#000000" d="M252,-255.1289C252,-275.5724 252,-306 252,-306 252,-306 740.9988,-306 740.9988,-306"/>
<polygon fill="#000000" stroke="#000000" points="740.9988,-309.5001 750.9988,-306 740.9988,-302.5001 740.9988,-309.5001"/>
</g>
<!-- AppComponent  -->
<g id="node16" class="node">
<title>AppComponent </title>
<polygon fill="#80b1d3" stroke="#000000" points="847.439,-388 738.561,-388 738.561,-352 847.439,-352 847.439,-388"/>
<text text-anchor="middle" x="793" y="-365.8" font-family="Times,serif" font-size="14.00" fill="#000000">AppComponent </text>
</g>
<!-- AppModule&#45;&gt;AppComponent  -->
<g id="edge20" class="edge">
<title>AppModule&#45;&gt;AppComponent </title>
<path fill="none" stroke="#000000" stroke-dasharray="1,5" d="M793,-320.2228C793,-320.2228 793,-341.7269 793,-341.7269"/>
<polygon fill="#000000" stroke="#000000" points="789.5001,-341.7269 793,-351.7269 796.5001,-341.727 789.5001,-341.7269"/>
</g>
<!-- AppRouterModule -->
<g id="node15" class="node">
<title>AppRouterModule</title>
<polygon fill="#8dd3c7" stroke="#000000" points="145.759,-255 142.759,-259 121.759,-259 118.759,-255 24.241,-255 24.241,-219 145.759,-219 145.759,-255"/>
<text text-anchor="middle" x="85" y="-232.8" font-family="Times,serif" font-size="14.00" fill="#000000">AppRouterModule</text>
</g>
<!-- AppRouterModule&#45;&gt;AppModule -->
<g id="edge19" class="edge">
<title>AppRouterModule&#45;&gt;AppModule</title>
<path fill="none" stroke="#000000" d="M85,-255.0109C85,-277.4852 85,-313 85,-313 85,-313 741.0935,-313 741.0935,-313"/>
<polygon fill="#000000" stroke="#000000" points="741.0935,-316.5001 751.0935,-313 741.0934,-309.5001 741.0935,-316.5001"/>
</g>
</g>
</svg>
