<?xml version="1.0" encoding="UTF-8" standalone="no"?>
<!DOCTYPE svg PUBLIC "-//W3C//DTD SVG 1.1//EN"
 "http://www.w3.org/Graphics/SVG/1.1/DTD/svg11.dtd">
<!-- Generated by graphviz version 2.40.1 (20161225.0304)
 -->
<!-- Title: dependencies Pages: 1 -->
<svg width="1535pt" height="284pt"
 viewBox="0.00 0.00 1535.00 284.00" xmlns="http://www.w3.org/2000/svg" xmlns:xlink="http://www.w3.org/1999/xlink">
<g id="graph0" class="graph" transform="scale(1 1) rotate(0) translate(4 280)">
<title>dependencies</title>
<polygon fill="#ffffff" stroke="transparent" points="-4,4 -4,-280 1531,-280 1531,4 -4,4"/>
<text text-anchor="start" x="742.5091" y="-42.4" font-family="sans-serif" font-weight="bold" font-size="14.00" fill="#000000">Legend</text>
<polygon fill="#ffffb3" stroke="transparent" points="529.5,-10 529.5,-30 549.5,-30 549.5,-10 529.5,-10"/>
<text text-anchor="start" x="553.129" y="-15.4" font-family="sans-serif" font-size="14.00" fill="#000000"> &#160;Declarations</text>
<polygon fill="#8dd3c7" stroke="transparent" points="642.5,-10 642.5,-30 662.5,-30 662.5,-10 642.5,-10"/>
<text text-anchor="start" x="666.2251" y="-15.4" font-family="sans-serif" font-size="14.00" fill="#000000"> &#160;Module</text>
<polygon fill="#80b1d3" stroke="transparent" points="728.5,-10 728.5,-30 748.5,-30 748.5,-10 728.5,-10"/>
<text text-anchor="start" x="752.2812" y="-15.4" font-family="sans-serif" font-size="14.00" fill="#000000"> &#160;Bootstrap</text>
<polygon fill="#fdb462" stroke="transparent" points="825.5,-10 825.5,-30 845.5,-30 845.5,-10 825.5,-10"/>
<text text-anchor="start" x="849.1732" y="-15.4" font-family="sans-serif" font-size="14.00" fill="#000000"> &#160;Providers</text>
<polygon fill="#fb8072" stroke="transparent" points="921.5,-10 921.5,-30 941.5,-30 941.5,-10 921.5,-10"/>
<text text-anchor="start" x="945.2258" y="-15.4" font-family="sans-serif" font-size="14.00" fill="#000000"> &#160;Exports</text>
<g id="clust1" class="cluster">
<title>cluster_AppModule</title>
<polygon fill="none" stroke="#000000" stroke-dasharray="1,5" points="8,-70 8,-268 1519,-268 1519,-70 8,-70"/>
</g>
<g id="clust2" class="cluster">
<title>cluster_AppModule_declarations</title>
<polygon fill="none" stroke="#000000" points="377,-78 377,-130 1511,-130 1511,-78 377,-78"/>
</g>
<g id="clust10" class="cluster">
<title>cluster_AppModule_imports</title>
<polygon fill="none" stroke="#000000" points="16,-78 16,-130 369,-130 369,-78 16,-78"/>
</g>
<g id="clust12" class="cluster">
<title>cluster_AppModule_bootstrap</title>
<polygon fill="none" stroke="#000000" points="765,-208 765,-260 889,-260 889,-208 765,-208"/>
</g>
<!-- AppComponent -->
<g id="node1" class="node">
<title>AppComponent</title>
<polygon fill="#ffffb3" stroke="#000000" points="1502.9399,-122 1397.0601,-122 1397.0601,-86 1502.9399,-86 1502.9399,-122"/>
<text text-anchor="middle" x="1450" y="-99.8" font-family="Times,serif" font-size="14.00" fill="#000000">AppComponent</text>
</g>
<!-- AppModule -->
<g id="node8" class="node">
<title>AppModule</title>
<polygon fill="#8dd3c7" stroke="#000000" points="868.6571,-187 865.6571,-191 844.6571,-191 841.6571,-187 785.3429,-187 785.3429,-151 868.6571,-151 868.6571,-187"/>
<text text-anchor="middle" x="827" y="-164.8" font-family="Times,serif" font-size="14.00" fill="#000000">AppModule</text>
</g>
<!-- AppComponent&#45;&gt;AppModule -->
<g id="edge1" class="edge">
<title>AppComponent&#45;&gt;AppModule</title>
<path fill="none" stroke="#000000" d="M1450,-122.0109C1450,-144.4852 1450,-180 1450,-180 1450,-180 878.8442,-180 878.8442,-180"/>
<polygon fill="#000000" stroke="#000000" points="878.8442,-176.5001 868.8442,-180 878.8441,-183.5001 878.8442,-176.5001"/>
</g>
<!-- AdsenseComponent -->
<g id="node2" class="node">
<title>AdsenseComponent</title>
<polygon fill="#ffffb3" stroke="#000000" points="1379.2576,-122 1250.7424,-122 1250.7424,-86 1379.2576,-86 1379.2576,-122"/>
<text text-anchor="middle" x="1315" y="-99.8" font-family="Times,serif" font-size="14.00" fill="#000000">AdsenseComponent</text>
</g>
<!-- AdsenseComponent&#45;&gt;AppModule -->
<g id="edge2" class="edge">
<title>AdsenseComponent&#45;&gt;AppModule</title>
<path fill="none" stroke="#000000" d="M1315,-122.1289C1315,-142.5724 1315,-173 1315,-173 1315,-173 879.029,-173 879.029,-173"/>
<polygon fill="#000000" stroke="#000000" points="879.029,-169.5001 869.029,-173 879.0289,-176.5001 879.029,-169.5001"/>
</g>
<!-- DatePickerExample -->
<g id="node3" class="node">
<title>DatePickerExample</title>
<polygon fill="#ffffb3" stroke="#000000" points="1232.9524,-122 1105.0476,-122 1105.0476,-86 1232.9524,-86 1232.9524,-122"/>
<text text-anchor="middle" x="1169" y="-99.8" font-family="Times,serif" font-size="14.00" fill="#000000">DatePickerExample</text>
</g>
<!-- DatePickerExample&#45;&gt;AppModule -->
<g id="edge3" class="edge">
<title>DatePickerExample&#45;&gt;AppModule</title>
<path fill="none" stroke="#000000" d="M1169,-122.2667C1169,-140.5552 1169,-166 1169,-166 1169,-166 878.9359,-166 878.9359,-166"/>
<polygon fill="#000000" stroke="#000000" points="878.9359,-162.5001 868.9359,-166 878.9359,-169.5001 878.9359,-162.5001"/>
</g>
<!-- DateTimePickerExample -->
<g id="node4" class="node">
<title>DateTimePickerExample</title>
<polygon fill="#ffffb3" stroke="#000000" points="1086.5016,-122 929.4984,-122 929.4984,-86 1086.5016,-86 1086.5016,-122"/>
<text text-anchor="middle" x="1008" y="-99.8" font-family="Times,serif" font-size="14.00" fill="#000000">DateTimePickerExample</text>
</g>
<!-- DateTimePickerExample&#45;&gt;AppModule -->
<g id="edge4" class="edge">
<title>DateTimePickerExample&#45;&gt;AppModule</title>
<path fill="none" stroke="#000000" d="M1008,-122.0091C1008,-138.0494 1008,-159 1008,-159 1008,-159 878.98,-159 878.98,-159"/>
<polygon fill="#000000" stroke="#000000" points="878.98,-155.5001 868.98,-159 878.9799,-162.5001 878.98,-155.5001"/>
</g>
<!-- SimpleDatePickerExample -->
<g id="node5" class="node">
<title>SimpleDatePickerExample</title>
<polygon fill="#ffffb3" stroke="#000000" points="910.6218,-122 743.3782,-122 743.3782,-86 910.6218,-86 910.6218,-122"/>
<text text-anchor="middle" x="827" y="-99.8" font-family="Times,serif" font-size="14.00" fill="#000000">SimpleDatePickerExample</text>
</g>
<!-- SimpleDatePickerExample&#45;&gt;AppModule -->
<g id="edge5" class="edge">
<title>SimpleDatePickerExample&#45;&gt;AppModule</title>
<path fill="none" stroke="#000000" d="M827,-122.1061C827,-122.1061 827,-140.991 827,-140.991"/>
<polygon fill="#000000" stroke="#000000" points="823.5001,-140.9909 827,-150.991 830.5001,-140.991 823.5001,-140.9909"/>
</g>
<!-- UsingWithFormExample -->
<g id="node6" class="node">
<title>UsingWithFormExample</title>
<polygon fill="#ffffb3" stroke="#000000" points="724.5351,-122 567.4649,-122 567.4649,-86 724.5351,-86 724.5351,-122"/>
<text text-anchor="middle" x="646" y="-99.8" font-family="Times,serif" font-size="14.00" fill="#000000">UsingWithFormExample</text>
</g>
<!-- UsingWithFormExample&#45;&gt;AppModule -->
<g id="edge6" class="edge">
<title>UsingWithFormExample&#45;&gt;AppModule</title>
<path fill="none" stroke="#000000" d="M646,-122.0091C646,-138.0494 646,-159 646,-159 646,-159 775.02,-159 775.02,-159"/>
<polygon fill="#000000" stroke="#000000" points="775.0201,-162.5001 785.02,-159 775.02,-155.5001 775.0201,-162.5001"/>
</g>
<!-- DateRangePickerExample -->
<g id="node7" class="node">
<title>DateRangePickerExample</title>
<polygon fill="#ffffb3" stroke="#000000" points="548.7184,-122 385.2816,-122 385.2816,-86 548.7184,-86 548.7184,-122"/>
<text text-anchor="middle" x="467" y="-99.8" font-family="Times,serif" font-size="14.00" fill="#000000">DateRangePickerExample</text>
</g>
<!-- DateRangePickerExample&#45;&gt;AppModule -->
<g id="edge7" class="edge">
<title>DateRangePickerExample&#45;&gt;AppModule</title>
<path fill="none" stroke="#000000" d="M467,-122.2667C467,-140.5552 467,-166 467,-166 467,-166 774.9989,-166 774.9989,-166"/>
<polygon fill="#000000" stroke="#000000" points="774.9989,-169.5001 784.9989,-166 774.9988,-162.5001 774.9989,-169.5001"/>
</g>
<!-- AppComponent  -->
<g id="node11" class="node">
<title>AppComponent </title>
<polygon fill="#80b1d3" stroke="#000000" points="881.439,-252 772.561,-252 772.561,-216 881.439,-216 881.439,-252"/>
<text text-anchor="middle" x="827" y="-229.8" font-family="Times,serif" font-size="14.00" fill="#000000">AppComponent </text>
</g>
<!-- AppModule&#45;&gt;AppComponent  -->
<g id="edge10" class="edge">
<title>AppModule&#45;&gt;AppComponent </title>
<path fill="none" stroke="#000000" stroke-dasharray="1,5" d="M827,-187.1061C827,-187.1061 827,-205.991 827,-205.991"/>
<polygon fill="#000000" stroke="#000000" points="823.5001,-205.9909 827,-215.991 830.5001,-205.991 823.5001,-205.9909"/>
</g>
<!-- AngularDateTimePickerModule -->
<g id="node9" class="node">
<title>AngularDateTimePickerModule</title>
<polygon fill="#8dd3c7" stroke="#000000" points="360.6601,-122 357.6601,-126 336.6601,-126 333.6601,-122 163.3399,-122 163.3399,-86 360.6601,-86 360.6601,-122"/>
<text text-anchor="middle" x="262" y="-99.8" font-family="Times,serif" font-size="14.00" fill="#000000">AngularDateTimePickerModule</text>
</g>
<!-- AngularDateTimePickerModule&#45;&gt;AppModule -->
<g id="edge8" class="edge">
<title>AngularDateTimePickerModule&#45;&gt;AppModule</title>
<path fill="none" stroke="#000000" d="M262,-122.1289C262,-142.5724 262,-173 262,-173 262,-173 774.9948,-173 774.9948,-173"/>
<polygon fill="#000000" stroke="#000000" points="774.9948,-176.5001 784.9948,-173 774.9947,-169.5001 774.9948,-176.5001"/>
</g>
<!-- AppRouterModule -->
<g id="node10" class="node">
<title>AppRouterModule</title>
<polygon fill="#8dd3c7" stroke="#000000" points="145.759,-122 142.759,-126 121.759,-126 118.759,-122 24.241,-122 24.241,-86 145.759,-86 145.759,-122"/>
<text text-anchor="middle" x="85" y="-99.8" font-family="Times,serif" font-size="14.00" fill="#000000">AppRouterModule</text>
</g>
<!-- AppRouterModule&#45;&gt;AppModule -->
<g id="edge9" class="edge">
<title>AppRouterModule&#45;&gt;AppModule</title>
<path fill="none" stroke="#000000" d="M85,-122.0109C85,-144.4852 85,-180 85,-180 85,-180 775.2493,-180 775.2493,-180"/>
<polygon fill="#000000" stroke="#000000" points="775.2493,-183.5001 785.2493,-180 775.2492,-176.5001 775.2493,-183.5001"/>
</g>
</g>
</svg>
